<?xml version="1.0" encoding="UTF-8"?>
<!DOCTYPE svg PUBLIC "-//W3C//DTD SVG 1.1//EN" "http://www.w3.org/Graphics/SVG/1.1/DTD/svg11.dtd">
<svg xmlns="http://www.w3.org/2000/svg" version="1.1" width="500px" height="500px" style="shape-rendering:geometricPrecision; text-rendering:geometricPrecision; image-rendering:optimizeQuality; fill-rule:evenodd; clip-rule:evenodd" xmlns:xlink="http://www.w3.org/1999/xlink">
<g><path style="opacity:1" fill="#020243" d="M 280.5,114.5 C 315.983,122.734 343.65,142.068 363.5,172.5C 360.544,171.863 357.544,171.363 354.5,171C 338.789,170.803 323.123,170.303 307.5,169.5C 304.127,166.822 300.794,164.156 297.5,161.5C 295.418,157.614 292.085,155.447 287.5,155C 260.997,154.17 234.663,154.337 208.5,155.5C 207.833,155.5 207.5,155.833 207.5,156.5C 206.833,156.5 206.167,156.5 205.5,156.5C 186.497,156.333 167.497,156.5 148.5,157C 147.944,157.383 147.611,157.883 147.5,158.5C 146.833,158.5 146.167,158.5 145.5,158.5C 160.137,140.866 178.137,127.866 199.5,119.5C 202.738,118.605 205.905,118.605 209,119.5C 210.46,117.578 212.127,116.911 214,117.5C 215.667,118.5 217.333,119.5 219,120.5C 219.667,117.833 220.333,117.833 221,120.5C 221.317,118.699 221.984,118.366 223,119.5C 223.5,119 224,118.5 224.5,118C 223.33,116.245 221.663,115.245 219.5,115C 235.748,112.576 252.081,111.91 268.5,113C 269.496,114.013 270.496,114.846 271.5,115.5C 274.449,114.698 277.449,114.364 280.5,114.5 Z"/></g>
<g><path style="opacity:1" fill="#35d5e4" d="M 368.5,170.5 C 369.038,172.117 369.371,173.784 369.5,175.5C 368.5,175.5 367.5,175.5 366.5,175.5C 365.833,174.167 364.833,173.167 363.5,172.5C 343.65,142.068 315.983,122.734 280.5,114.5C 274.498,112.289 268.165,111.122 261.5,111C 239.879,108.495 219.212,111.328 199.5,119.5C 178.137,127.866 160.137,140.866 145.5,158.5C 143.307,159.68 140.974,160.68 138.5,161.5C 137.702,161.043 137.369,160.376 137.5,159.5C 181.148,109.569 234.815,94.4025 298.5,114C 327.852,125.493 351.185,144.326 368.5,170.5 Z"/></g>
<g><path style="opacity:1" fill="#031b4e" d="M 280.5,114.5 C 277.449,114.364 274.449,114.698 271.5,115.5C 270.496,114.846 269.496,114.013 268.5,113C 252.081,111.91 235.748,112.576 219.5,115C 221.663,115.245 223.33,116.245 224.5,118C 224,118.5 223.5,119 223,119.5C 221.984,118.366 221.317,118.699 221,120.5C 220.333,117.833 219.667,117.833 219,120.5C 217.333,119.5 215.667,118.5 214,117.5C 212.127,116.911 210.46,117.578 209,119.5C 205.905,118.605 202.738,118.605 199.5,119.5C 219.212,111.328 239.879,108.495 261.5,111C 268.165,111.122 274.498,112.289 280.5,114.5 Z"/></g>
<g><path style="opacity:1" fill="#3d006a" d="M 208.5,155.5 C 234.663,154.337 260.997,154.17 287.5,155C 292.085,155.447 295.418,157.614 297.5,161.5C 292.366,159.177 287.033,157.344 281.5,156C 257.169,155.5 232.836,155.333 208.5,155.5 Z"/></g>
<g><path style="opacity:1" fill="#69078d" d="M 205.5,156.5 C 186.295,157.19 166.961,157.857 147.5,158.5C 147.611,157.883 147.944,157.383 148.5,157C 167.497,156.5 186.497,156.333 205.5,156.5 Z"/></g>
<g><path style="opacity:1" fill="#d340e1" d="M 207.5,156.5 C 207.5,155.833 207.833,155.5 208.5,155.5C 232.836,155.333 257.169,155.5 281.5,156C 287.033,157.344 292.366,159.177 297.5,161.5C 300.794,164.156 304.127,166.822 307.5,169.5C 307.611,170.117 307.944,170.617 308.5,171C 323.006,171.169 337.339,171.669 351.5,172.5C 336.485,172.167 321.485,172.501 306.5,173.5C 308.297,174.695 309.297,176.362 309.5,178.5C 307.5,176.833 305.5,175.167 303.5,173.5C 302.5,171.833 301.167,170.5 299.5,169.5C 293.846,164.569 287.18,161.736 279.5,161C 255.833,160.333 232.167,160.333 208.5,161C 202.88,161.362 198.213,163.528 194.5,167.5C 188.387,170.947 184.054,175.947 181.5,182.5C 180.833,182.833 180.167,183.167 179.5,183.5C 179.649,182.448 179.483,181.448 179,180.5C 176.031,184.418 174.031,188.752 173,193.5C 172.83,202.343 172.33,211.01 171.5,219.5C 171.167,218.833 170.833,218.167 170.5,217.5C 168.475,200.253 172.475,184.586 182.5,170.5C 185.192,168.138 187.859,165.804 190.5,163.5C 191.338,163.158 191.672,162.492 191.5,161.5C 193.648,161.389 193.981,162.056 192.5,163.5C 195.557,164.429 198.223,163.596 200.5,161C 202.833,160.667 205.167,160.333 207.5,160C 303.435,158.522 303.435,157.355 207.5,156.5 Z"/></g>
<g><path style="opacity:1" fill="#6b0c89" d="M 191.5,161.5 C 191.672,162.492 191.338,163.158 190.5,163.5C 177.673,162.34 164.673,162.173 151.5,163C 145.781,165.529 140.115,168.029 134.5,170.5C 139.041,166.393 144.374,163.56 150.5,162C 164.163,161.5 177.829,161.333 191.5,161.5 Z"/></g>
<g><path style="opacity:1" fill="#020043" d="M 299.5,169.5 C 301.167,170.5 302.5,171.833 303.5,173.5C 307.281,179.131 310.447,185.131 313,191.5C 313.167,203.667 313.333,215.833 313.5,228C 313.612,242.205 313.112,256.372 312,270.5C 309.421,275.992 306.588,281.326 303.5,286.5C 300.957,289.78 297.957,292.613 294.5,295C 286.656,298.13 278.656,299.964 270.5,300.5C 258.886,310.446 247.886,321.113 237.5,332.5C 234.5,335.167 231.5,337.833 228.5,340.5C 228.21,330.352 228.21,320.019 228.5,309.5C 229.691,304.531 228.024,301.197 223.5,299.5C 219.5,299.5 215.5,299.5 211.5,299.5C 208.888,298.629 206.221,297.963 203.5,297.5C 197.085,295.302 191.752,291.635 187.5,286.5C 183.818,280.649 180.984,274.316 179,267.5C 178.333,242.167 178.333,216.833 179,191.5C 180.131,188.555 180.964,185.555 181.5,182.5C 184.054,175.947 188.387,170.947 194.5,167.5C 199.191,166.103 203.857,164.603 208.5,163C 232.833,162.333 257.167,162.333 281.5,163C 287.691,164.551 293.691,166.717 299.5,169.5 Z"/></g>
<g><path style="opacity:1" fill="#31015d" d="M 299.5,169.5 C 293.691,166.717 287.691,164.551 281.5,163C 257.167,162.333 232.833,162.333 208.5,163C 203.857,164.603 199.191,166.103 194.5,167.5C 198.213,163.528 202.88,161.362 208.5,161C 232.167,160.333 255.833,160.333 279.5,161C 287.18,161.736 293.846,164.569 299.5,169.5 Z"/></g>
<g><path style="opacity:1" fill="#030143" d="M 190.5,163.5 C 187.859,165.804 185.192,168.138 182.5,170.5C 181.448,170.351 180.448,170.517 179.5,171C 177.994,173.85 176.161,175.683 174,176.5C 172.267,174.398 170.267,174.065 168,175.5C 168.658,178.746 169.491,181.58 170.5,184C 169.149,192.941 168.649,201.774 169,210.5C 167.16,211.833 166.66,211.666 167.5,210C 162.649,205.567 157.815,205.733 153,210.5C 152.667,210.167 152.333,209.833 152,209.5C 149.711,211.427 147.544,212.761 145.5,213.5C 145.208,219.149 145.875,224.816 147.5,230.5C 149.65,232.149 151.65,233.982 153.5,236C 156.965,237.074 160.465,237.574 164,237.5C 165.12,235.97 165.954,234.303 166.5,232.5C 167.496,232.586 168.329,232.252 169,231.5C 169.253,244.68 169.753,257.847 170.5,271C 170.456,272.764 170.122,274.431 169.5,276C 171.385,278.937 173.718,281.437 176.5,283.5C 174.97,283.939 173.97,285.272 173.5,287.5C 175.226,287.185 176.893,287.019 178.5,287C 179.711,288.113 179.711,289.28 178.5,290.5C 182.848,293.189 187.181,295.856 191.5,298.5C 192.583,299.365 192.749,300.365 192,301.5C 189.177,301.92 186.344,302.253 183.5,302.5C 184.313,303.814 185.313,304.981 186.5,306C 184.623,307.185 182.623,308.185 180.5,309C 175.017,314.04 169.184,318.54 163,322.5C 160.742,322.297 158.242,321.964 155.5,321.5C 154.519,316.871 154.352,312.204 155,307.5C 157.455,300.35 158.955,293.016 159.5,285.5C 154.03,283.832 148.363,282.665 142.5,282C 139.733,280.917 137.067,279.75 134.5,278.5C 133.685,274.841 131.519,272.174 128,270.5C 125.76,266.024 124.094,261.357 123,256.5C 122.5,235.169 122.333,213.836 122.5,192.5C 123.271,189.546 123.938,186.546 124.5,183.5C 126.308,178.021 129.642,173.688 134.5,170.5C 140.115,168.029 145.781,165.529 151.5,163C 164.673,162.173 177.673,162.34 190.5,163.5 Z"/></g>
<g><path style="opacity:0.545" fill="#722da3" d="M 145.5,158.5 C 146.167,158.5 146.833,158.5 147.5,158.5C 146.097,159.931 144.431,161.098 142.5,162C 139.139,162.054 136.139,163.054 133.5,165C 129.602,168.729 125.935,172.562 122.5,176.5C 123.072,174.745 123.906,173.078 125,171.5C 129.089,167.241 133.255,163.241 137.5,159.5C 137.369,160.376 137.702,161.043 138.5,161.5C 140.974,160.68 143.307,159.68 145.5,158.5 Z"/></g>
<g><path style="opacity:1" fill="#340369" d="M 307.5,169.5 C 323.123,170.303 338.789,170.803 354.5,171C 357.544,171.363 360.544,171.863 363.5,172.5C 364.833,173.167 365.833,174.167 366.5,175.5C 366.5,175.833 366.5,176.167 366.5,176.5C 361.722,174.352 356.722,173.019 351.5,172.5C 337.339,171.669 323.006,171.169 308.5,171C 307.944,170.617 307.611,170.117 307.5,169.5 Z"/></g>
<g><path style="opacity:1" fill="#53acdb" d="M 368.5,170.5 C 370.664,172.822 372.331,175.489 373.5,178.5C 372.791,179.404 371.791,179.737 370.5,179.5C 368.77,178.974 367.436,177.974 366.5,176.5C 366.5,176.167 366.5,175.833 366.5,175.5C 367.5,175.5 368.5,175.5 369.5,175.5C 369.371,173.784 369.038,172.117 368.5,170.5 Z"/></g>
<g><path style="opacity:1" fill="#7554c0" d="M 373.5,178.5 C 375.326,180.147 376.66,182.147 377.5,184.5C 374.865,183.189 372.531,181.522 370.5,179.5C 371.791,179.737 372.791,179.404 373.5,178.5 Z"/></g>
<g><path style="opacity:0.129" fill="#16184d" d="M 115.5,194.5 C 115.533,198.869 115.2,203.202 114.5,207.5C 113.5,209.5 112.5,211.5 111.5,213.5C 112.456,206.996 113.79,200.663 115.5,194.5 Z"/></g>
<g><path style="opacity:1" fill="#3a016b" d="M 181.5,182.5 C 180.964,185.555 180.131,188.555 179,191.5C 178.333,216.833 178.333,242.167 179,267.5C 180.984,274.316 183.818,280.649 187.5,286.5C 182.606,280.717 179.106,274.05 177,266.5C 176.333,241.5 176.333,216.5 177,191.5C 178.341,188.978 179.174,186.311 179.5,183.5C 180.167,183.167 180.833,182.833 181.5,182.5 Z"/></g>
<g><path style="opacity:0.286" fill="#62138b" d="M 387.5,205.5 C 388.281,212.019 388.948,218.686 389.5,225.5C 388.833,224.833 388.167,224.167 387.5,223.5C 387.5,217.5 387.5,211.5 387.5,205.5 Z"/></g>
<g><path style="opacity:1" fill="#c0f8f9" d="M 267.5,210.5 C 280.187,208.702 286.354,214.035 286,226.5C 281.62,235.947 274.787,238.447 265.5,234C 257.09,225.373 257.757,217.54 267.5,210.5 Z"/></g>
<g><path style="opacity:1" fill="#020f3e" d="M 228.5,213.5 C 232.606,215.204 234.273,218.371 233.5,223C 233.554,227.505 232.387,231.672 230,235.5C 227.705,235.689 225.705,237.023 224,239.5C 221.333,238.833 218.667,238.167 216,237.5C 215.667,238.167 215.333,238.833 215,239.5C 210.211,238.357 207.211,235.024 206,229.5C 204.984,228.366 204.317,228.699 204,230.5C 203.535,229.069 202.701,227.903 201.5,227C 201.433,221.133 203.433,216.133 207.5,212C 208.448,211.517 209.448,211.351 210.5,211.5C 210.36,209.876 211.027,208.71 212.5,208C 217.853,206.867 222.853,207.7 227.5,210.5C 228.386,211.325 228.719,212.325 228.5,213.5 Z"/></g>
<g><path style="opacity:1" fill="#c0f9fa" d="M 228.5,213.5 C 235.177,223.14 233.177,230.64 222.5,236C 211.018,236.518 205.518,231.018 206,219.5C 209.597,211.265 215.763,208.431 224.5,211C 225.984,211.662 227.317,212.496 228.5,213.5 Z"/></g>
<g><path style="opacity:1" fill="#300065" d="M 303.5,173.5 C 305.5,175.167 307.5,176.833 309.5,178.5C 311.344,182.852 313.178,187.186 315,191.5C 315.667,216.5 315.667,241.5 315,266.5C 313.787,274.787 309.954,281.453 303.5,286.5C 306.588,281.326 309.421,275.992 312,270.5C 313.112,256.372 313.612,242.205 313.5,228C 313.333,215.833 313.167,203.667 313,191.5C 310.447,185.131 307.281,179.131 303.5,173.5 Z"/></g>
<g><path style="opacity:0.991" fill="#78a5e9" d="M 387.5,223.5 C 388.167,224.167 388.833,224.833 389.5,225.5C 390.046,229.045 390.713,232.545 391.5,236C 391.272,236.399 390.938,236.565 390.5,236.5C 389.686,234.369 389.186,232.036 389,229.5C 388.83,240.674 388.33,251.674 387.5,262.5C 387.5,249.5 387.5,236.5 387.5,223.5 Z"/></g>
<g><path style="opacity:1" fill="#d934e9" d="M 351.5,172.5 C 356.722,173.019 361.722,174.352 366.5,176.5C 367.436,177.974 368.77,178.974 370.5,179.5C 372.531,181.522 374.865,183.189 377.5,184.5C 382.688,190.545 386.021,197.545 387.5,205.5C 387.5,211.5 387.5,217.5 387.5,223.5C 387.5,236.5 387.5,249.5 387.5,262.5C 386.282,267.293 384.949,271.96 383.5,276.5C 376.77,286.211 367.77,293.045 356.5,297C 351.511,297.499 346.511,297.666 341.5,297.5C 342.562,309.676 343.895,321.843 345.5,334C 345.911,339.257 343.578,341.257 338.5,340C 327.99,330.258 317.323,320.758 306.5,311.5C 302.478,307.479 298.145,303.812 293.5,300.5C 286.721,303.096 279.721,304.429 272.5,304.5C 271.316,303.312 271.316,302.145 272.5,301C 271.906,300.536 271.239,300.369 270.5,300.5C 278.656,299.964 286.656,298.13 294.5,295C 297.957,292.613 300.957,289.78 303.5,286.5C 309.954,281.453 313.787,274.787 315,266.5C 315.667,241.5 315.667,216.5 315,191.5C 313.178,187.186 311.344,182.852 309.5,178.5C 309.297,176.362 308.297,174.695 306.5,173.5C 321.485,172.501 336.485,172.167 351.5,172.5 Z"/></g>
<g><path style="opacity:1" fill="#030143" d="M 358.5,180.5 C 361.167,181.167 363.833,181.833 366.5,182.5C 370.5,184.5 373.5,187.5 375.5,191.5C 376.732,195.728 378.565,199.728 381,203.5C 381.667,223.5 381.667,243.5 381,263.5C 378.494,268.429 375.994,273.429 373.5,278.5C 371.283,281.547 368.283,283.047 364.5,283C 365.973,283.71 366.64,284.876 366.5,286.5C 363.091,287.702 359.758,289.202 356.5,291C 350.086,291.129 343.753,291.796 337.5,293C 336.667,293.833 335.833,294.667 335,295.5C 334.335,300.524 334.502,305.524 335.5,310.5C 335.423,312.299 334.923,313.966 334,315.5C 330.78,312.682 328.446,313.349 327,317.5C 324.034,315.601 320.867,314.101 317.5,313C 315.866,308.201 312.532,305.368 307.5,304.5C 304.256,302.929 301.589,300.595 299.5,297.5C 303.458,294.043 307.292,290.377 311,286.5C 313.396,281.978 315.896,277.645 318.5,273.5C 319.151,272.909 319.818,272.243 320.5,271.5C 321.324,268.215 321.824,264.882 322,261.5C 322.667,238.5 322.667,215.5 322,192.5C 321.156,188.353 319.99,184.353 318.5,180.5C 332.066,179.554 345.399,179.554 358.5,180.5 Z"/></g>
<g><path style="opacity:1" fill="#f314f6" d="M 337.5,238.5 C 337.107,236.716 336.441,235.05 335.5,233.5C 335.337,231.143 335.503,228.81 336,226.5C 342.742,216.66 350.408,215.993 359,224.5C 360.472,230.076 359.305,234.909 355.5,239C 349.364,242.313 343.364,242.146 337.5,238.5 Z"/></g>
<g><path style="opacity:1" fill="#6a078e" d="M 366.5,182.5 C 363.833,181.833 361.167,181.167 358.5,180.5C 357.158,179.207 355.491,178.374 353.5,178C 347.167,177.833 340.833,177.667 334.5,177.5C 327.796,177.504 321.463,178.17 315.5,179.5C 314.522,179.189 313.855,178.522 313.5,177.5C 327.154,176.334 340.821,176.167 354.5,177C 358.802,178.369 362.802,180.203 366.5,182.5 Z"/></g>
<g><path style="opacity:1" fill="#200354" d="M 182.5,170.5 C 172.475,184.586 168.475,200.253 170.5,217.5C 166.257,210.53 160.257,208.697 152.5,212C 145.447,219.974 146.113,227.308 154.5,234C 158.762,234.917 162.762,234.417 166.5,232.5C 165.954,234.303 165.12,235.97 164,237.5C 160.465,237.574 156.965,237.074 153.5,236C 151.65,233.982 149.65,232.149 147.5,230.5C 145.875,224.816 145.208,219.149 145.5,213.5C 147.544,212.761 149.711,211.427 152,209.5C 152.333,209.833 152.667,210.167 153,210.5C 157.815,205.733 162.649,205.567 167.5,210C 166.66,211.666 167.16,211.833 169,210.5C 168.649,201.774 169.149,192.941 170.5,184C 169.491,181.58 168.658,178.746 168,175.5C 170.267,174.065 172.267,174.398 174,176.5C 176.161,175.683 177.994,173.85 179.5,171C 180.448,170.517 181.448,170.351 182.5,170.5 Z"/></g>
<g><path style="opacity:1" fill="#932dbd" d="M 122.5,176.5 C 120.674,181.489 118.841,186.489 117,191.5C 116.5,213.497 116.333,235.497 116.5,257.5C 115.505,245.678 115.172,233.678 115.5,221.5C 115.819,216.637 115.486,211.97 114.5,207.5C 115.2,203.202 115.533,198.869 115.5,194.5C 115.892,187.642 118.226,181.642 122.5,176.5 Z"/></g>
<g><path style="opacity:0.165" fill="#126081" d="M 109.5,225.5 C 108.657,239.482 108.324,253.482 108.5,267.5C 107.738,261.157 107.071,254.657 106.5,248C 106.949,240.281 107.949,232.781 109.5,225.5 Z"/></g>
<g><path style="opacity:1" fill="#24005a" d="M 358.5,180.5 C 345.399,179.554 332.066,179.554 318.5,180.5C 319.99,184.353 321.156,188.353 322,192.5C 322.667,215.5 322.667,238.5 322,261.5C 321.824,264.882 321.324,268.215 320.5,271.5C 319.818,272.243 319.151,272.909 318.5,273.5C 318.89,270.161 319.39,266.827 320,263.5C 320.667,239.5 320.667,215.5 320,191.5C 318.786,187.355 317.286,183.355 315.5,179.5C 321.463,178.17 327.796,177.504 334.5,177.5C 340.833,177.667 347.167,177.833 353.5,178C 355.491,178.374 357.158,179.207 358.5,180.5 Z"/></g>
<g><path style="opacity:1" fill="#25025c" d="M 337.5,238.5 C 343.364,242.146 349.364,242.313 355.5,239C 359.305,234.909 360.472,230.076 359,224.5C 350.408,215.993 342.742,216.66 336,226.5C 335.503,228.81 335.337,231.143 335.5,233.5C 334.359,230.36 334.192,227.027 335,223.5C 338.195,222.149 340.028,219.815 340.5,216.5C 348.833,214.615 355.499,216.948 360.5,223.5C 361.068,228.551 362.401,233.384 364.5,238C 362.836,239.767 361.669,239.267 361,236.5C 359.498,239.018 357.998,241.518 356.5,244C 350.747,244.851 345.08,244.517 339.5,243C 337.893,241.951 337.227,240.451 337.5,238.5 Z"/></g>
<g><path style="opacity:1" fill="#03436f" d="M 113.5,231.5 C 113.475,244.179 113.808,256.845 114.5,269.5C 113.106,261.543 112.439,253.376 112.5,245C 112.501,240.32 112.834,235.82 113.5,231.5 Z"/></g>
<g><path style="opacity:0.176" fill="#0d567e" d="M 390.5,237.5 C 391.658,247.325 391.825,257.325 391,267.5C 390.79,269.058 390.29,270.391 389.5,271.5C 390.384,260.193 390.717,248.86 390.5,237.5 Z"/></g>
<g><path style="opacity:1" fill="#2ed8e9" d="M 114.5,207.5 C 115.486,211.97 115.819,216.637 115.5,221.5C 114.419,224.627 113.753,227.96 113.5,231.5C 112.834,235.82 112.501,240.32 112.5,245C 112.439,253.376 113.106,261.543 114.5,269.5C 116.365,284.974 120.698,299.64 127.5,313.5C 127.579,315.666 128.246,317.666 129.5,319.5C 129.167,320.167 128.833,320.833 128.5,321.5C 127.18,319.349 125.68,317.349 124,315.5C 123.242,313.231 123.409,311.064 124.5,309C 123.149,307.383 121.482,306.216 119.5,305.5C 118.725,303.604 117.725,301.937 116.5,300.5C 115.262,298.786 114.595,296.786 114.5,294.5C 113.069,286.999 111.403,279.666 109.5,272.5C 108.549,271.081 108.216,269.415 108.5,267.5C 108.324,253.482 108.657,239.482 109.5,225.5C 109.332,221.342 109.998,217.342 111.5,213.5C 112.5,211.5 113.5,209.5 114.5,207.5 Z"/></g>
<g><path style="opacity:0.082" fill="#0c436c" d="M 389.5,272.5 C 389.579,277.831 388.579,282.831 386.5,287.5C 387.058,282.291 388.058,277.291 389.5,272.5 Z"/></g>
<g><path style="opacity:1" fill="#040645" d="M 115.5,221.5 C 115.172,233.678 115.505,245.678 116.5,257.5C 117.105,260.127 117.605,262.793 118,265.5C 120.095,268.69 121.928,272.023 123.5,275.5C 123.343,276.873 123.51,278.207 124,279.5C 129.51,282.502 134.343,286.335 138.5,291C 142.189,291.852 145.856,292.685 149.5,293.5C 146.708,301.615 144.541,309.948 143,318.5C 142.529,323.844 142.029,329.178 141.5,334.5C 136.585,327.672 131.919,320.672 127.5,313.5C 120.698,299.64 116.365,284.974 114.5,269.5C 113.808,256.845 113.475,244.179 113.5,231.5C 113.753,227.96 114.419,224.627 115.5,221.5 Z"/></g>
<g><path style="opacity:0.31" fill="#125876" d="M 109.5,272.5 C 111.403,279.666 113.069,286.999 114.5,294.5C 113.207,293.158 112.374,291.491 112,289.5C 110.681,283.894 109.847,278.227 109.5,272.5 Z"/></g>
<g><path style="opacity:1" fill="#180351" d="M 383.5,276.5 C 383.167,277.833 382.833,279.167 382.5,280.5C 380.549,281.716 379.049,283.382 378,285.5C 377.74,289.25 377.073,292.916 376,296.5C 375.813,294.655 374.98,292.989 373.5,291.5C 366.455,294.403 359.788,297.903 353.5,302C 355.441,302.743 357.274,302.576 359,301.5C 360.067,302.191 361.234,302.691 362.5,303C 358.074,303.791 353.741,303.457 349.5,302C 352.121,301.094 351.954,300.594 349,300.5C 345.907,300.987 345.741,301.987 348.5,303.5C 349.218,308.182 349.884,312.849 350.5,317.5C 349.167,318.5 349.167,319.5 350.5,320.5C 349.738,320.911 348.738,321.077 347.5,321C 347.833,321.333 348.167,321.667 348.5,322C 347.342,323.009 346.675,324.342 346.5,326C 348.916,333.281 347.416,339.448 342,344.5C 340.416,343.139 338.582,342.472 336.5,342.5C 331.37,336.869 326.036,331.369 320.5,326C 316.803,325.262 314.47,323.095 313.5,319.5C 309.02,318.688 306.687,316.021 306.5,311.5C 317.323,320.758 327.99,330.258 338.5,340C 343.578,341.257 345.911,339.257 345.5,334C 343.895,321.843 342.562,309.676 341.5,297.5C 346.511,297.666 351.511,297.499 356.5,297C 367.77,293.045 376.77,286.211 383.5,276.5 Z"/></g>
<g><path style="opacity:1" fill="#e774f0" d="M 203.5,297.5 C 206.221,297.963 208.888,298.629 211.5,299.5C 211.611,300.117 211.944,300.617 212.5,301C 211.142,301.934 209.808,302.768 208.5,303.5C 206.236,302.781 203.903,302.448 201.5,302.5C 202.058,301.21 203.058,300.377 204.5,300C 203.748,299.329 203.414,298.496 203.5,297.5 Z"/></g>
<g><path style="opacity:1" fill="#de9eee" d="M 211.5,299.5 C 215.5,299.5 219.5,299.5 223.5,299.5C 222.962,301.117 222.629,302.784 222.5,304.5C 221.5,304.5 220.5,304.5 219.5,304.5C 215.731,304.756 212.064,304.423 208.5,303.5C 209.808,302.768 211.142,301.934 212.5,301C 211.944,300.617 211.611,300.117 211.5,299.5 Z"/></g>
<g><path style="opacity:1" fill="#2b0160" d="M 123.5,275.5 C 127.725,280.556 132.725,284.722 138.5,288C 142.787,289.153 147.121,289.987 151.5,290.5C 148.07,305.083 145.07,319.75 142.5,334.5C 142.167,334.5 141.833,334.5 141.5,334.5C 142.029,329.178 142.529,323.844 143,318.5C 144.541,309.948 146.708,301.615 149.5,293.5C 145.856,292.685 142.189,291.852 138.5,291C 134.343,286.335 129.51,282.502 124,279.5C 123.51,278.207 123.343,276.873 123.5,275.5 Z"/></g>
<g><path style="opacity:1" fill="#020243" d="M 306.5,311.5 C 306.687,316.021 309.02,318.688 313.5,319.5C 314.47,323.095 316.803,325.262 320.5,326C 326.036,331.369 331.37,336.869 336.5,342.5C 334.488,343.228 332.488,344.062 330.5,345C 329.663,346.011 329.33,347.178 329.5,348.5C 306.571,368.036 279.904,377.703 249.5,377.5C 217.676,378.08 190.009,367.746 166.5,346.5C 166.167,347 165.833,347.5 165.5,348C 166.544,349.174 167.544,350.341 168.5,351.5C 168.063,353.074 167.063,354.241 165.5,355C 165.833,355.333 166.167,355.667 166.5,356C 165.207,356.49 163.873,356.657 162.5,356.5C 161.833,356.167 161.167,355.833 160.5,355.5C 157.833,352.5 155.167,349.5 152.5,346.5C 153.695,346.678 154.862,347.011 156,347.5C 156.945,347.095 157.612,346.428 158,345.5C 159.085,347.657 160.251,347.824 161.5,346C 157.329,344.55 155.995,341.883 157.5,338C 161.405,337.249 165.071,337.749 168.5,339.5C 168.281,338.325 168.614,337.325 169.5,336.5C 170.967,336.277 172.467,335.944 174,335.5C 174.684,334.216 174.517,333.049 173.5,332C 171.833,331.333 170.167,331.333 168.5,332C 169.833,333 169.833,334 168.5,335C 166.167,335.667 163.833,335.667 161.5,335C 164.311,333.356 166.644,331.19 168.5,328.5C 174.691,326.858 179.358,323.358 182.5,318C 186.897,315.801 191.231,313.635 195.5,311.5C 195.351,312.552 195.517,313.552 196,314.5C 198.473,313.967 200.307,312.634 201.5,310.5C 198.908,308.187 199.408,306.52 203,305.5C 204.711,305.439 206.044,306.106 207,307.5C 211.273,306.544 215.44,305.544 219.5,304.5C 220.5,304.5 221.5,304.5 222.5,304.5C 221.717,318.502 221.217,332.502 221,346.5C 223.95,349.145 226.783,349.145 229.5,346.5C 233.48,342.855 237.48,339.189 241.5,335.5C 252.167,325.5 262.5,315.167 272.5,304.5C 279.721,304.429 286.721,303.096 293.5,300.5C 298.145,303.812 302.478,307.479 306.5,311.5 Z"/></g>
<g><path style="opacity:1" fill="#de36eb" d="M 205.5,156.5 C 206.167,156.5 206.833,156.5 207.5,156.5C 303.435,157.355 303.435,158.522 207.5,160C 205.167,160.333 202.833,160.667 200.5,161C 198.223,163.596 195.557,164.429 192.5,163.5C 193.981,162.056 193.648,161.389 191.5,161.5C 177.829,161.333 164.163,161.5 150.5,162C 144.374,163.56 139.041,166.393 134.5,170.5C 129.642,173.688 126.308,178.021 124.5,183.5C 122.17,185.542 121.004,188.208 121,191.5C 120.17,213.671 120.337,235.671 121.5,257.5C 122.255,262.6 124.088,267.266 127,271.5C 128.736,274.739 131.236,277.073 134.5,278.5C 135.716,280.451 137.382,281.951 139.5,283C 144.865,285.124 150.365,286.624 156,287.5C 156.667,290.167 156.667,292.833 156,295.5C 152.751,308.328 149.584,321.162 146.5,334C 146.833,334.833 147.167,335.667 147.5,336.5C 163.998,324.494 180.332,312.328 196.5,300C 185.422,293.248 177.588,283.748 173,271.5C 171.94,256.7 171.106,242.033 170.5,227.5C 171.388,224.946 171.721,222.279 171.5,219.5C 172.33,211.01 172.83,202.343 173,193.5C 174.031,188.752 176.031,184.418 179,180.5C 179.483,181.448 179.649,182.448 179.5,183.5C 179.174,186.311 178.341,188.978 177,191.5C 176.333,216.5 176.333,241.5 177,266.5C 179.106,274.05 182.606,280.717 187.5,286.5C 191.752,291.635 197.085,295.302 203.5,297.5C 203.414,298.496 203.748,299.329 204.5,300C 203.058,300.377 202.058,301.21 201.5,302.5C 183.763,314.73 166.429,327.564 149.5,341C 148.552,341.483 147.552,341.649 146.5,341.5C 143.013,340.555 141.68,338.222 142.5,334.5C 145.07,319.75 148.07,305.083 151.5,290.5C 147.121,289.987 142.787,289.153 138.5,288C 132.725,284.722 127.725,280.556 123.5,275.5C 121.928,272.023 120.095,268.69 118,265.5C 117.605,262.793 117.105,260.127 116.5,257.5C 116.333,235.497 116.5,213.497 117,191.5C 118.841,186.489 120.674,181.489 122.5,176.5C 125.935,172.562 129.602,168.729 133.5,165C 136.139,163.054 139.139,162.054 142.5,162C 144.431,161.098 146.097,159.931 147.5,158.5C 166.961,157.857 186.295,157.19 205.5,156.5 Z"/></g>
<g><path style="opacity:1" fill="#f76bf8" d="M 170.5,217.5 C 170.833,218.167 171.167,218.833 171.5,219.5C 171.721,222.279 171.388,224.946 170.5,227.5C 169.167,229.167 167.833,230.833 166.5,232.5C 162.762,234.417 158.762,234.917 154.5,234C 146.113,227.308 145.447,219.974 152.5,212C 160.257,208.697 166.257,210.53 170.5,217.5 Z"/></g>
<g><path style="opacity:1" fill="#58007f" d="M 124.5,183.5 C 123.938,186.546 123.271,189.546 122.5,192.5C 121.503,213.994 121.169,235.66 121.5,257.5C 120.337,235.671 120.17,213.671 121,191.5C 121.004,188.208 122.17,185.542 124.5,183.5 Z"/></g>
<g><path style="opacity:1" fill="#24005c" d="M 122.5,192.5 C 122.333,213.836 122.5,235.169 123,256.5C 124.094,261.357 125.76,266.024 128,270.5C 131.519,272.174 133.685,274.841 134.5,278.5C 131.236,277.073 128.736,274.739 127,271.5C 124.088,267.266 122.255,262.6 121.5,257.5C 121.169,235.66 121.503,213.994 122.5,192.5 Z"/></g>
<g><path style="opacity:1" fill="#28035d" d="M 375.5,191.5 C 379.277,195.382 381.777,200.049 383,205.5C 383.964,225.898 383.631,246.231 382,266.5C 374.05,285.737 359.55,294.904 338.5,294C 336.686,296.481 336.02,299.315 336.5,302.5C 336.022,311.138 336.689,319.638 338.5,328C 338.167,329.167 337.833,330.333 337.5,331.5C 334.748,328.737 331.748,326.403 328.5,324.5C 320.815,318.48 313.815,311.813 307.5,304.5C 312.532,305.368 315.866,308.201 317.5,313C 320.867,314.101 324.034,315.601 327,317.5C 328.446,313.349 330.78,312.682 334,315.5C 334.923,313.966 335.423,312.299 335.5,310.5C 334.502,305.524 334.335,300.524 335,295.5C 335.833,294.667 336.667,293.833 337.5,293C 343.753,291.796 350.086,291.129 356.5,291C 359.758,289.202 363.091,287.702 366.5,286.5C 366.64,284.876 365.973,283.71 364.5,283C 368.283,283.047 371.283,281.547 373.5,278.5C 375.994,273.429 378.494,268.429 381,263.5C 381.667,243.5 381.667,223.5 381,203.5C 378.565,199.728 376.732,195.728 375.5,191.5 Z"/></g>
<g><path style="opacity:0.098" fill="#0c4b6f" d="M 377.5,311.5 C 377.509,313.308 377.009,314.975 376,316.5C 374.301,319.921 372.135,322.921 369.5,325.5C 371.678,320.468 374.345,315.801 377.5,311.5 Z"/></g>
<g><path style="opacity:1" fill="#bbeaf3" d="M 223.5,299.5 C 228.024,301.197 229.691,304.531 228.5,309.5C 227.759,319.043 226.759,328.71 225.5,338.5C 225.507,340.369 225.84,342.036 226.5,343.5C 227.5,343.5 228.5,343.5 229.5,343.5C 229.5,344.5 229.5,345.5 229.5,346.5C 226.783,349.145 223.95,349.145 221,346.5C 221.217,332.502 221.717,318.502 222.5,304.5C 222.629,302.784 222.962,301.117 223.5,299.5 Z"/></g>
<g><path style="opacity:1" fill="#1a2c52" d="M 228.5,309.5 C 228.21,320.019 228.21,330.352 228.5,340.5C 227.833,341.5 227.167,342.5 226.5,343.5C 225.84,342.036 225.507,340.369 225.5,338.5C 226.759,328.71 227.759,319.043 228.5,309.5 Z"/></g>
<g><path style="opacity:1" fill="#1f0355" d="M 170.5,227.5 C 171.106,242.033 171.94,256.7 173,271.5C 177.588,283.748 185.422,293.248 196.5,300C 180.332,312.328 163.998,324.494 147.5,336.5C 147.167,335.667 146.833,334.833 146.5,334C 149.584,321.162 152.751,308.328 156,295.5C 156.667,292.833 156.667,290.167 156,287.5C 150.365,286.624 144.865,285.124 139.5,283C 137.382,281.951 135.716,280.451 134.5,278.5C 137.067,279.75 139.733,280.917 142.5,282C 148.363,282.665 154.03,283.832 159.5,285.5C 158.955,293.016 157.455,300.35 155,307.5C 154.352,312.204 154.519,316.871 155.5,321.5C 158.242,321.964 160.742,322.297 163,322.5C 169.184,318.54 175.017,314.04 180.5,309C 182.623,308.185 184.623,307.185 186.5,306C 185.313,304.981 184.313,303.814 183.5,302.5C 186.344,302.253 189.177,301.92 192,301.5C 192.749,300.365 192.583,299.365 191.5,298.5C 187.181,295.856 182.848,293.189 178.5,290.5C 179.711,289.28 179.711,288.113 178.5,287C 176.893,287.019 175.226,287.185 173.5,287.5C 173.97,285.272 174.97,283.939 176.5,283.5C 173.718,281.437 171.385,278.937 169.5,276C 170.122,274.431 170.456,272.764 170.5,271C 169.753,257.847 169.253,244.68 169,231.5C 168.329,232.252 167.496,232.586 166.5,232.5C 167.833,230.833 169.167,229.167 170.5,227.5 Z"/></g>
<g><path style="opacity:1" fill="#590783" d="M 336.5,302.5 C 338.185,312.985 339.519,323.651 340.5,334.5C 335.65,332.328 331.65,328.994 328.5,324.5C 331.748,326.403 334.748,328.737 337.5,331.5C 337.833,330.333 338.167,329.167 338.5,328C 336.689,319.638 336.022,311.138 336.5,302.5 Z"/></g>
<g><path style="opacity:1" fill="#dda5ee" d="M 270.5,300.5 C 271.239,300.369 271.906,300.536 272.5,301C 271.316,302.145 271.316,303.312 272.5,304.5C 262.5,315.167 252.167,325.5 241.5,335.5C 241.43,332.175 240.096,331.175 237.5,332.5C 247.886,321.113 258.886,310.446 270.5,300.5 Z"/></g>
<g><path style="opacity:1" fill="#170451" d="M 201.5,302.5 C 203.903,302.448 206.236,302.781 208.5,303.5C 212.064,304.423 215.731,304.756 219.5,304.5C 215.44,305.544 211.273,306.544 207,307.5C 206.044,306.106 204.711,305.439 203,305.5C 199.408,306.52 198.908,308.187 201.5,310.5C 200.307,312.634 198.473,313.967 196,314.5C 195.517,313.552 195.351,312.552 195.5,311.5C 191.231,313.635 186.897,315.801 182.5,318C 179.358,323.358 174.691,326.858 168.5,328.5C 166.644,331.19 164.311,333.356 161.5,335C 163.833,335.667 166.167,335.667 168.5,335C 169.833,334 169.833,333 168.5,332C 170.167,331.333 171.833,331.333 173.5,332C 174.517,333.049 174.684,334.216 174,335.5C 172.467,335.944 170.967,336.277 169.5,336.5C 168.614,337.325 168.281,338.325 168.5,339.5C 165.071,337.749 161.405,337.249 157.5,338C 155.995,341.883 157.329,344.55 161.5,346C 160.251,347.824 159.085,347.657 158,345.5C 157.612,346.428 156.945,347.095 156,347.5C 154.862,347.011 153.695,346.678 152.5,346.5C 150.475,344.804 148.475,343.137 146.5,341.5C 147.552,341.649 148.552,341.483 149.5,341C 166.429,327.564 183.763,314.73 201.5,302.5 Z"/></g>
<g><path style="opacity:1" fill="#3abcd4" d="M 116.5,300.5 C 117.725,301.937 118.725,303.604 119.5,305.5C 121.482,306.216 123.149,307.383 124.5,309C 123.409,311.064 123.242,313.231 124,315.5C 125.68,317.349 127.18,319.349 128.5,321.5C 128.833,320.833 129.167,320.167 129.5,319.5C 128.246,317.666 127.579,315.666 127.5,313.5C 131.919,320.672 136.585,327.672 141.5,334.5C 141.833,334.5 142.167,334.5 142.5,334.5C 141.68,338.222 143.013,340.555 146.5,341.5C 148.475,343.137 150.475,344.804 152.5,346.5C 155.167,349.5 157.833,352.5 160.5,355.5C 158.658,353.966 157.325,354.3 156.5,356.5C 157.524,357.852 158.524,359.185 159.5,360.5C 155.564,358.234 152.231,355.234 149.5,351.5C 147.833,347.833 145.167,345.167 141.5,343.5C 130.332,330.834 121.999,316.5 116.5,300.5 Z"/></g>
<g><path style="opacity:1" fill="#d0cded" d="M 241.5,335.5 C 237.48,339.189 233.48,342.855 229.5,346.5C 229.5,345.5 229.5,344.5 229.5,343.5C 228.5,343.5 227.5,343.5 226.5,343.5C 227.167,342.5 227.833,341.5 228.5,340.5C 231.5,337.833 234.5,335.167 237.5,332.5C 240.096,331.175 241.43,332.175 241.5,335.5 Z"/></g>
<g><path style="opacity:1" fill="#34c9de" d="M 390.5,236.5 C 390.5,236.833 390.5,237.167 390.5,237.5C 390.717,248.86 390.384,260.193 389.5,271.5C 389.5,271.833 389.5,272.167 389.5,272.5C 388.058,277.291 387.058,282.291 386.5,287.5C 384.66,296.029 381.66,304.029 377.5,311.5C 374.345,315.801 371.678,320.468 369.5,325.5C 353.639,351.516 331.639,370.682 303.5,383C 296.699,385.879 289.699,388.045 282.5,389.5C 276.526,390.385 270.526,391.051 264.5,391.5C 266.042,390.837 267.709,390.17 269.5,389.5C 268.833,389.167 268.167,388.833 267.5,388.5C 258.686,389.79 250.019,389.79 241.5,388.5C 307.959,387.857 353.792,356.857 379,295.5C 380.276,290.509 381.443,285.509 382.5,280.5C 382.833,279.167 383.167,277.833 383.5,276.5C 384.949,271.96 386.282,267.293 387.5,262.5C 388.33,251.674 388.83,240.674 389,229.5C 389.186,232.036 389.686,234.369 390.5,236.5 Z"/></g>
<g><path style="opacity:0.275" fill="#134f76" d="M 141.5,343.5 C 145.167,345.167 147.833,347.833 149.5,351.5C 146.5,349.167 143.833,346.5 141.5,343.5 Z"/></g>
<g><path style="opacity:1" fill="#010b46" d="M 382.5,280.5 C 381.443,285.509 380.276,290.509 379,295.5C 353.792,356.857 307.959,387.857 241.5,388.5C 211.354,386.795 185.02,376.129 162.5,356.5C 163.873,356.657 165.207,356.49 166.5,356C 166.167,355.667 165.833,355.333 165.5,355C 167.063,354.241 168.063,353.074 168.5,351.5C 211.164,384.211 257.164,389.378 306.5,367C 316.086,361.953 324.919,355.787 333,348.5C 333.688,347.668 333.521,347.002 332.5,346.5C 331.482,347.193 330.482,347.859 329.5,348.5C 329.33,347.178 329.663,346.011 330.5,345C 332.488,344.062 334.488,343.228 336.5,342.5C 338.582,342.472 340.416,343.139 342,344.5C 347.416,339.448 348.916,333.281 346.5,326C 346.675,324.342 347.342,323.009 348.5,322C 348.167,321.667 347.833,321.333 347.5,321C 348.738,321.077 349.738,320.911 350.5,320.5C 349.167,319.5 349.167,318.5 350.5,317.5C 349.884,312.849 349.218,308.182 348.5,303.5C 345.741,301.987 345.907,300.987 349,300.5C 351.954,300.594 352.121,301.094 349.5,302C 353.741,303.457 358.074,303.791 362.5,303C 361.234,302.691 360.067,302.191 359,301.5C 357.274,302.576 355.441,302.743 353.5,302C 359.788,297.903 366.455,294.403 373.5,291.5C 374.98,292.989 375.813,294.655 376,296.5C 377.073,292.916 377.74,289.25 378,285.5C 379.049,283.382 380.549,281.716 382.5,280.5 Z"/></g>
<g><path style="opacity:1" fill="#57a7ce" d="M 329.5,348.5 C 330.482,347.859 331.482,347.193 332.5,346.5C 333.521,347.002 333.688,347.668 333,348.5C 324.919,355.787 316.086,361.953 306.5,367C 257.164,389.378 211.164,384.211 168.5,351.5C 167.544,350.341 166.544,349.174 165.5,348C 165.833,347.5 166.167,347 166.5,346.5C 190.009,367.746 217.676,378.08 249.5,377.5C 279.904,377.703 306.571,368.036 329.5,348.5 Z"/></g>
<g><path style="opacity:0.608" fill="#165a7d" d="M 159.5,360.5 C 162.089,361.419 164.089,363.086 165.5,365.5C 162.911,364.581 160.911,362.914 159.5,360.5 Z"/></g>
<g><path style="opacity:1" fill="#30dae8" d="M 160.5,355.5 C 161.167,355.833 161.833,356.167 162.5,356.5C 185.02,376.129 211.354,386.795 241.5,388.5C 250.019,389.79 258.686,389.79 267.5,388.5C 268.167,388.833 268.833,389.167 269.5,389.5C 267.709,390.17 266.042,390.837 264.5,391.5C 251.228,392.66 237.895,392.66 224.5,391.5C 224.167,391.5 223.833,391.5 223.5,391.5C 221.162,389.96 218.495,389.294 215.5,389.5C 211.493,387.342 207.16,386.009 202.5,385.5C 188.786,381.147 176.452,374.48 165.5,365.5C 164.089,363.086 162.089,361.419 159.5,360.5C 158.524,359.185 157.524,357.852 156.5,356.5C 157.325,354.3 158.658,353.966 160.5,355.5 Z"/></g>
<g><path style="opacity:0.357" fill="#14587e" d="M 202.5,385.5 C 207.16,386.009 211.493,387.342 215.5,389.5C 210.835,388.943 206.502,387.61 202.5,385.5 Z"/></g>
<g><path style="opacity:0.141" fill="#0c446c" d="M 215.5,389.5 C 218.495,389.294 221.162,389.96 223.5,391.5C 220.572,391.435 217.905,390.768 215.5,389.5 Z"/></g>
<g><path style="opacity:0.5" fill="#105a7e" d="M 282.5,389.5 C 263.323,395.157 243.989,395.824 224.5,391.5C 237.895,392.66 251.228,392.66 264.5,391.5C 270.526,391.051 276.526,390.385 282.5,389.5 Z"/></g>
</svg>
